# xmcd CD database file
#
# Track frame offsets:
#	180
#	6294
#	19610
#	26087
#	30655
#	41275
#	52867
#	64484
#	77020
#	88281
#	100954
#	113914
#	126301
#	139472
#	151513
#	163898
#
# Disc length: 2336 seconds
#
# Revision: 0
# Processed by: cddbd v1.5.2PL0 Copyright (c) Steve Scherf et al.
# Submitted via: CDex 1.51
#
DISCID=cf091e10
DTITLE=Various Artist - Country Rare Roots - Colorado Sunset
DYEAR=2005
DGENRE=Country
TTITLE0=W. M. Stepp - The Ways Of The World
TTITLE1=Ernest Phipps - If The Light Has Gone
TTITLE2=W. M. Stepp and Moe Puckett - The Old Hen
TTITLE3=Gene Autrey - Colorado Sunset
TTITLE4=Claude Casey - Pine State Honky Tonk
TTITLE5=Jubileers - The Right String
TTITLE6=Wayne Walker and G. Sullivan - When My Blue Moon Turns To Gold Again
TTITLE7=Tex Ritter - I'm Wasting My Tears On You
TTITLE8=Texas Ruby - Don't Let That Man Let You Down
TTITLE9=Hank Penny - Steel Guitar Stomp
TTITLE10=The Delmore Brother - Barnyard Boogie
TTITLE11=Jimmy Wakely - One Has My Name
TTITLE12=Jimmy Wakely - Mine All Mine
TTITLE13=Johnny Bond - Heart And Soul
TTITLE14=George Morgan - Room Full Of Roses
TTITLE15=Eddie Kirk - Candy Kisses
EXTD=
EXTT0=
EXTT1=
EXTT2=
EXTT3=
EXTT4=
EXTT5=
EXTT6=
EXTT7=
EXTT8=
EXTT9=
EXTT10=
EXTT11=
EXTT12=
EXTT13=
EXTT14=
EXTT15=
PLAYORDER=
